# xmcd
#
# Track frame offsets: 
#        150
#        22325
#        35897
#        54185
#        65580
#        82547
#        94685
#        112432
#        127500
#        143012
#        166112
#        180290
#        202180
#        216095
#        230990
#        244415
#
# Disc length: 3504 seconds
#
# Revision: 2
# Processed by: cddbd v1.5.2PL0 Copyright (c) Steve Scherf et al.
# Submitted via: ExactAudioCopyFreeDBPlugin 1.0
#
DISCID=e10dae10
DTITLE=The Marshall Tucker Band - Where a Country Boy Belongs
DYEAR=2006
DGENRE=Country
TTITLE0=Heard It in a Love Song
TTITLE1=Low Down Ways
TTITLE2=Never Again
TTITLE3=I May Be Easy But You Make It Hard
TTITLE4=If That Isn't Love
TTITLE5=If I Could Only Have My Way
TTITLE6=Too Stubborn
TTITLE7=Heartbroke
TTITLE8=When Love Begins to Fade
TTITLE9=Losing You
TTITLE10=Bags Half Packed
TTITLE11=Try One More Time
TTITLE12=See You Later, I'm Gone
TTITLE13=Feel a Drunk Comin' On
TTITLE14=Good Ole Hurtin' Song
TTITLE15=Driving You Out of My Mind
EXTD=
EXTT0=
EXTT1=
EXTT2=
EXTT3=
EXTT4=
EXTT5=
EXTT6=
EXTT7=
EXTT8=
EXTT9=
EXTT10=
EXTT11=
EXTT12=
EXTT13=
EXTT14=
EXTT15=
PLAYORDER=
